<?xml version="1.0" standalone="no"?>
<!DOCTYPE svg PUBLIC "-//W3C//DTD SVG 20010904//EN" "http://www.w3.org/TR/2001/REC-SVG-20010904/DTD/svg10.dtd">
<svg version="1.0" xmlns="http://www.w3.org/2000/svg" width="24.000000pt" height="24.000000pt"
    viewBox="0 0 24.000000 24.000000" preserveAspectRatio="xMidYMid meet">

    <g transform="translate(0.000000,24.000000) scale(0.100000,-0.100000)" fill="#fff" stroke="none">
        <path d="M3 164 c3 -11 9 -36 13 -57 10 -61 53 -60 54 1 0 12 5 22 10 22 6 0
10 -10 10 -22 1 -61 44 -62 54 -1 4 21 9 46 12 56 3 10 0 17 -9 17 -9 0 -17
-16 -22 -42 l-8 -43 -7 33 c-11 48 -28 62 -46 38 -8 -11 -14 -31 -15 -45 -1
-21 -3 -19 -13 13 -7 22 -18 42 -25 44 -9 3 -11 -2 -8 -14z" />
        <path d="M170 165 c0 -9 5 -15 11 -13 6 2 11 8 11 13 0 5 -5 11 -11 13 -6 2
-11 -4 -11 -13z" />
        <path d="M215 171 c-6 -11 9 -23 19 -14 9 9 7 23 -3 23 -6 0 -12 -4 -16 -9z" />
        <path d="M170 100 c0 -29 4 -40 13 -37 16 5 16 69 0 75 -9 2 -13 -9 -13 -38z" />
        <path d="M210 100 c0 -29 4 -40 15 -40 11 0 15 11 15 40 0 29 -4 40 -15 40
-11 0 -15 -11 -15 -40z" />
    </g>
</svg>